<?xml version="1.0" encoding="UTF-8"?>
<svg xmlns="http://www.w3.org/2000/svg" xmlns:xlink="http://www.w3.org/1999/xlink" width="58px" height="45px" viewBox="0 0 58 45" version="1.1">
    <!-- Generator: Sketch 52.6 (67491) - http://www.bohemiancoding.com/sketch -->
    <title>026 - Next Day Delivery</title>
    <desc>Created with Sketch.</desc>
    <g id="Page-1" stroke="none" stroke-width="1" fill="none" fill-rule="evenodd">
        <g id="026---Next-Day-Delivery">
            <path d="M41.29,36 L36,36 L38,4 L47.06,4 C47.6553306,3.99691919 48.2206108,4.26120602 48.6,4.72 L57.54,15.44 C57.8374212,15.8002465 58.0000726,16.2528417 58,16.72 L58,34 C57.9967052,35.1032019 57.1032019,35.9967052 56,36 L41.29,36 Z" id="Path" fill="#3B97D3"/>
            <path d="M38,2 L38,36 L16.71,36 C15.8275269,33.0303431 13.0980028,30.9939659 10,30.9939659 C6.90199723,30.9939659 4.17247313,33.0303431 3.29,36 L2,36 C0.896798134,35.9967052 0.00329480111,35.1032019 0,34 L0,2 C0.00329480111,0.896798134 0.896798134,0.00329480111 2,0 L36,0 C37.1032019,0.00329480111 37.9967052,0.896798134 38,2 Z" id="Path" fill="#F29C1F"/>
            <path d="M46,27 L44,27 C43.4477153,27 43,26.5522847 43,26 C43,25.4477153 43.4477153,25 44,25 L46,25 C46.5522847,25 47,25.4477153 47,26 C47,26.5522847 46.5522847,27 46,27 Z" id="Path" fill="#2980BA"/>
            <path d="M17,38 C16.9999999,41.8659932 13.8659932,44.9999999 10,44.9999999 C6.13400679,44.9999999 3.00000006,41.8659932 3,38 C2.99810101,37.3227218 3.09581303,36.6488458 3.29,36 C4.17247313,33.0303431 6.90199723,30.9939659 10,30.9939659 C13.0980028,30.9939659 15.8275269,33.0303431 16.71,36 C16.904187,36.6488458 17.001899,37.3227218 17,38 Z" id="Path" fill="#547580"/>
            <circle id="Oval" fill="#ECF0F1" cx="10" cy="38" r="2"/>
            <path d="M55,38 C55,41.8659932 51.8659932,45 48,45 C44.1340068,45 41,41.8659932 41,38 C40.998101,37.3227218 41.095813,36.6488458 41.29,36 C42.1724731,33.0303431 44.9019972,30.9939659 48,30.9939659 C51.0980028,30.9939659 53.8275269,33.0303431 54.71,36 C54.904187,36.6488458 55.001899,37.3227218 55,38 Z" id="Path" fill="#547580"/>
            <circle id="Oval" fill="#ECF0F1" cx="48" cy="38" r="2"/>
            <path d="M58,16.72 L58,20 L45,20 C43.8967981,19.9967052 43.0032948,19.1032019 43,18 L43,3.99997336 L47.06,4 C47.6553306,3.99691919 48.2206108,4.26120602 48.6,4.72 L57.54,15.44 C57.8374212,15.8002465 58.0000726,16.2528417 58,16.72 Z" id="Path" fill="#67B9CC"/>
            <path d="M9,14 C9.55228475,14 10,13.5522847 10,13 L10,5 C10,4.44771525 9.55228475,4 9,4 C8.44771525,4 8,4.44771525 8,5 L8,9.513 L4.848,4.47 C4.61156287,4.09169789 4.15314079,3.91576244 3.72431721,4.03874756 C3.29549363,4.16173268 2.99999832,4.55388903 3,5 L3,13 C3.00000001,13.5522847 3.44771526,14 4,14 C4.55228474,14 4.99999999,13.5522847 5,13 L5,8.487 L8.152,13.53 C8.33473893,13.8223815 8.65520957,14.0000008 9,14 Z" id="Path" fill="#F5EFCA"/>
            <path d="M13,14 L17,14 C17.5522847,14 18,13.5522847 18,13 C18,12.4477153 17.5522847,12 17,12 L14,12 L14,10 L16,10 C16.5522847,10 17,9.55228475 17,9 C17,8.44771525 16.5522847,8 16,8 L14,8 L14,6 L17,6 C17.5522847,6 18,5.55228475 18,5 C18,4.44771525 17.5522847,4 17,4 L13,4 C12.4477153,4 12,4.44771525 12,5 L12,13 C12,13.5522847 12.4477153,14 13,14 Z" id="Path" fill="#F5EFCA"/>
            <path d="M19.47,13.848 C19.6949034,13.9885653 19.9664349,14.0340306 20.2248601,13.974394 C20.4832854,13.9147573 20.7074356,13.754904 20.848,13.53 L22.5,10.886 L24.152,13.53 C24.4447109,13.999442 25.062558,14.1427109 25.532,13.85 C26.001442,13.5572891 26.1447109,12.939442 25.852,12.47 L23.679,9 L25.848,5.53 C26.1407109,5.06055796 25.997442,4.44271092 25.528,4.15 C25.058558,3.85728908 24.4407109,4.00055796 24.148,4.47 L22.5,7.114 L20.848,4.47 C20.5552891,4.00055796 19.937442,3.85728908 19.468,4.15 C18.998558,4.44271092 18.8552891,5.06055796 19.148,5.53 L21.321,9 L19.152,12.47 C19.0114347,12.6949034 18.9659694,12.9664349 19.025606,13.2248601 C19.0852427,13.4832854 19.245096,13.7074356 19.47,13.848 Z" id="Path" fill="#F5EFCA"/>
            <path d="M34,4 L28,4 C27.4477153,4 27,4.44771525 27,5 C27,5.55228475 27.4477153,6 28,6 L30,6 L30,13 C30,13.5522847 30.4477153,14 31,14 C31.5522847,14 32,13.5522847 32,13 L32,6 L34,6 C34.5522847,6 35,5.55228475 35,5 C35,4.44771525 34.5522847,4 34,4 Z" id="Path" fill="#F5EFCA"/>
            <path d="M10,17 L9,17 C8.44771525,17 8,17.4477153 8,18 L8,26 C8,26.5522847 8.44771525,27 9,27 L10,27 C12.7614237,27 15,24.7614237 15,22 C15,19.2385763 12.7614237,17 10,17 Z M10,25 L10,19 C11.6568542,19 13,20.3431458 13,22 C13,23.6568542 11.6568542,25 10,25 Z" id="Shape" fill="#F5EFCA" fill-rule="nonzero"/>
            <path d="M19.937,17.649 C19.7911391,17.2577598 19.4175455,16.9983294 19,16.9983294 C18.5824545,16.9983294 18.2088609,17.2577598 18.063,17.649 L15.063,25.649 C14.8697003,26.1664908 15.1325092,26.7427003 15.65,26.936 C16.1674908,27.1292997 16.7437003,26.8664908 16.937,26.349 L17.443,25 L20.557,25 L21.063,26.351 C21.2094095,26.7415823 21.5828787,27.0002605 22,27 C22.1200944,26.9995211 22.2391947,26.9782049 22.352,26.937 C22.6004247,26.8438406 22.8016452,26.655776 22.9113638,26.4142075 C23.0210824,26.172639 23.0303045,25.8973702 22.937,25.649 L19.937,17.649 Z M18.193,23 L19,20.848 L19.807,23 L18.193,23 Z" id="Shape" fill="#F5EFCA" fill-rule="nonzero"/>
            <path d="M28.2,17.4 L26,20.333 L23.8,17.4 C23.4686291,16.9581722 22.8418278,16.8686292 22.4,17.2 C21.9581722,17.5313709 21.8686292,18.1581722 22.2,18.6 L25,22.333 L25,26 C25,26.5522847 25.4477153,27 26,27 C26.5522847,27 27,26.5522847 27,26 L27,22.333 L29.8,18.6 C30.0143594,18.3141875 30.0599564,17.9357266 29.9196152,17.6071797 C29.7792741,17.2786328 29.4743158,17.0499141 29.1196152,17.0071797 C28.7649147,16.9644453 28.4143594,17.1141875 28.2,17.4 Z" id="Path" fill="#F5EFCA"/>
        </g>
    </g>
</svg>
