<svg width="1010" height="1010" viewBox="0 0 1010 1010" fill="none" xmlns="http://www.w3.org/2000/svg">
<path d="M877.098 161.71H287.177V601.455H877.098V161.71Z" fill="#FFB933"/>
<path d="M877.098 616.881H287.176C278.65 616.881 271.749 609.982 271.749 601.454V161.71C271.749 153.183 278.65 146.283 287.176 146.283H877.098C885.624 146.283 892.525 153.183 892.525 161.71V601.454C892.525 609.982 885.624 616.881 877.098 616.881ZM302.605 586.027H861.671V177.138H302.605V586.027Z" fill="#454545"/>
<path d="M296.292 611.309C293.941 611.309 291.546 610.766 289.301 609.62C281.708 605.748 278.695 596.468 282.567 588.874L391.117 375.978C393.754 370.811 399.057 367.556 404.857 367.556H776.367C782.484 367.556 788.029 371.172 790.484 376.777L882.325 585.515C885.762 593.304 882.221 602.418 874.416 605.839C866.597 609.274 857.513 605.733 854.092 597.93L766.303 398.411H414.303L310.047 602.887C307.32 608.234 301.911 611.309 296.292 611.309Z" fill="#454545"/>
<path d="M776.352 398.411C774.213 398.411 772.043 397.975 769.98 397.025C762.221 393.5 758.801 384.34 762.326 376.596L863.057 155.323C866.597 147.564 875.757 144.129 883.486 147.669C891.245 151.195 894.664 160.354 891.139 168.099L790.408 389.372C787.817 395.052 782.213 398.411 776.352 398.411Z" fill="#454545"/>
<path d="M404.872 398.411C399.343 398.411 394.009 395.444 391.237 390.231L273.557 168.958C269.549 161.44 272.412 152.084 279.93 148.092C287.448 144.053 296.804 146.946 300.797 154.464L418.477 375.737C422.484 383.256 419.622 392.611 412.103 396.603C409.798 397.838 407.313 398.411 404.872 398.411Z" fill="#454545"/>
<path d="M287.508 535.738C453.083 538.027 492.45 616.762 535.282 616.762C578.099 616.762 695.63 615.406 680.564 698.721C739.983 715.775 835.094 588.98 874.461 588.98C913.829 588.98 936.97 609.862 936.97 653.825C936.97 712.883 683.471 848.294 578.099 848.294C477.399 848.294 329.21 745.243 280.609 745.243" fill="white"/>
<path d="M578.099 863.723C515.215 863.723 436.842 826.691 373.867 796.951C334.378 778.299 297.075 760.672 280.609 760.672C272.081 760.672 265.18 753.772 265.18 745.244C265.18 736.717 272.081 729.817 280.609 729.817C303.991 729.817 340.646 747.128 387.049 769.048C447.238 797.478 522.145 832.868 578.099 832.868C682.582 832.868 921.543 699.564 921.543 653.825C921.543 620.107 906.583 604.409 874.461 604.409C863.825 604.409 834.793 628.771 813.595 646.563C769.286 683.715 719.178 725.84 676.299 713.545C668.69 711.362 663.975 703.768 665.376 695.979C668.073 681.063 665.723 669.432 658.205 660.424C634.567 632.13 566.182 631.844 537.316 632.19H535.282C516.209 632.19 499.983 621.779 479.433 608.582C442.642 584.957 392.231 552.612 287.297 551.165C278.77 551.045 271.96 544.039 272.081 535.526C272.202 527 279.734 520.01 287.719 520.311C401.482 521.892 458.416 558.426 496.096 582.623C512.397 593.078 525.263 601.334 535.282 601.334H537.301C573.445 601.771 648.985 601.289 681.874 640.627C692.148 652.936 697.332 667.656 697.332 684.574C724.525 681.003 762.432 649.199 793.754 622.923C826.627 595.339 852.6 573.553 874.461 573.553C923.998 573.553 952.398 602.811 952.398 653.825C952.398 725.991 686.875 863.723 578.099 863.723Z" fill="#454545"/>
<path d="M280.473 461.643H73.03V787.61H280.473V461.643Z" fill="#3BAFDA"/>
<path d="M280.473 803.037H73.0301C64.5022 803.037 57.6024 796.136 57.6024 787.61V461.643C57.6024 453.117 64.5022 446.216 73.0301 446.216H280.473C289 446.216 295.9 453.117 295.9 461.643V787.61C295.9 796.137 289 803.037 280.473 803.037ZM88.457 772.182H265.045V477.07H88.457V772.182Z" fill="#454545"/>
<path d="M680.564 714.148H443.471C434.943 714.148 428.043 707.247 428.043 698.721C428.043 690.193 434.943 683.293 443.471 683.293H680.564C689.09 683.293 695.991 690.193 695.991 698.721C695.991 707.247 689.09 714.148 680.564 714.148Z" fill="#454545"/>
<path d="M278.529 536.731H91.0033C82.4762 536.731 75.5764 529.832 75.5764 521.304C75.5764 512.778 82.4762 505.877 91.0033 505.877H278.529C287.056 505.877 293.956 512.778 293.956 521.304C293.956 529.832 287.056 536.731 278.529 536.731Z" fill="#454545"/>
<path d="M278.529 602.751H91.0033C82.4762 602.751 75.5764 595.85 75.5764 587.322C75.5764 578.796 82.4762 571.896 91.0033 571.896H278.529C287.056 571.896 293.956 578.796 293.956 587.322C293.956 595.85 287.056 602.751 278.529 602.751Z" fill="#454545"/>
<path d="M278.529 668.709H91.0033C82.4762 668.709 75.5764 661.81 75.5764 653.282C75.5764 644.755 82.4762 637.855 91.0033 637.855H278.529C287.056 637.855 293.956 644.755 293.956 653.282C293.956 661.81 287.056 668.709 278.529 668.709Z" fill="#454545"/>
<path d="M278.529 734.729H91.0033C82.4762 734.729 75.5764 727.828 75.5764 719.3C75.5764 710.774 82.4762 703.873 91.0033 703.873H278.529C287.056 703.873 293.956 710.774 293.956 719.3C293.956 727.828 287.056 734.729 278.529 734.729Z" fill="#454545"/>
</svg>
